<?xml version="1.0" encoding="UTF-8"?>
<svg version="1.1" xmlns="http://www.w3.org/2000/svg" width="500" height="500">
<path d="M0 0 C-1.44323469 4.73789165 -3.37226733 8.98858151 -5.625 13.375 C-5.94984375 14.01566406 -6.2746875 14.65632813 -6.609375 15.31640625 C-7.40257407 16.87947501 -8.20077031 18.44000622 -9 20 C-9.66 20 -10.32 20 -11 20 C-11.1546875 21.0828125 -11.1546875 21.0828125 -11.3125 22.1875 C-12.06119695 25.25035117 -13.33516849 27.34430363 -15 30 C-13.84701416 29.98428955 -12.69402832 29.9685791 -11.50610352 29.95239258 C-7.14305885 29.8972375 -2.78004348 29.86334569 1.58325195 29.83520508 C3.45570085 29.82031005 5.3281161 29.79998715 7.20043945 29.77368164 C33.15558947 29.41870372 53.61650189 35.02279681 76 48 C76 48.66 76 49.32 76 50 C76.763125 50.28875 77.52625 50.5775 78.3125 50.875 C81 52 81 52 84 54 C84 54.66 84 55.32 84 56 C84.55171875 56.2165625 85.1034375 56.433125 85.671875 56.65625 C88.80556389 58.46495634 90.83396506 60.81551674 93.25 63.5 C93.70890625 63.99886719 94.1678125 64.49773437 94.640625 65.01171875 C98 68.74102493 98 68.74102493 98 71 C98.66 71 99.32 71 100 71 C103 74.46153846 103 74.46153846 103 77 C103.66 77 104.32 77 105 77 C105.90122431 78.60114422 106.79558377 80.20615213 107.6875 81.8125 C108.18636719 82.70582031 108.68523437 83.59914063 109.19921875 84.51953125 C111.65342924 89.26291856 113.82298467 94.12442108 116 99 C116.02505615 97.70376709 116.0501123 96.40753418 116.07592773 95.07202148 C116.17040481 90.2431523 116.27052574 85.4144135 116.37231445 80.58569336 C116.41551134 78.49946146 116.45719658 76.41319767 116.49731445 74.3269043 C116.55538798 71.32070321 116.61897393 68.31466039 116.68359375 65.30859375 C116.70030624 64.38227646 116.71701874 63.45595917 116.73423767 62.50157166 C116.84571963 57.58074517 117.18351972 52.85529732 118 48 C117.278125 47.773125 116.55625 47.54625 115.8125 47.3125 C112.4484918 45.74262951 110.50703313 43.71030608 108 41 C107.34 40.34 106.68 39.68 106 39 C103.39928639 32.06476371 102.97437333 25.29280143 105.1875 18.1875 C108.56194402 12.25313293 112.99638183 9.00180908 119 6 C126.12739315 5.29331796 132.42631339 5.03953171 138.34765625 9.43359375 C143.73681927 14.54246933 146.14588937 19.64852067 146.4375 27.0625 C146.38280446 34.06352864 144.51377947 38.67945904 140 44 C137.58706658 46.18070274 135.38519715 48 132 48 C132.33 66.15 132.66 84.3 133 103 C136.3 103.99 139.6 104.98 143 106 C145.5859375 107.5078125 145.5859375 107.5078125 147.375 109.125 C147.98085938 109.64320313 148.58671875 110.16140625 149.2109375 110.6953125 C155.74672206 119.11477297 155.5931599 128.08292255 155.53125 138.3125 C155.5339501 139.89233641 155.53783682 141.47217118 155.54284668 143.05200195 C155.54871746 146.35025987 155.54025779 149.64808212 155.52148438 152.94628906 C155.49869576 157.15262032 155.51183198 161.35793036 155.53577423 165.56422424 C155.55029831 168.82270868 155.54559619 172.08095502 155.53526306 175.33944702 C155.53261397 176.88943608 155.53580082 178.43944747 155.54518127 179.9894104 C155.58475683 188.36450887 155.46639913 195.66137929 151 203 C150.484375 203.886875 149.96875 204.77375 149.4375 205.6875 C140.64874068 214.02555371 131.52816322 214.97107111 120 215 C119.78907715 215.55349121 119.5781543 216.10698242 119.36083984 216.67724609 C111.82657767 236.3202899 111.82657767 236.3202899 106 245 C105.53207031 245.804375 105.06414062 246.60875 104.58203125 247.4375 C102.89841225 250.16454707 101.02563626 252.58032829 99 255.0625 C96.10234172 258.62084744 96.10234172 258.62084744 93.375 262.30859375 C92.694375 263.14583984 92.694375 263.14583984 92 264 C91.34 264 90.68 264 90 264 C90 264.66 90 265.32 90 266 C89.34 266 88.68 266 88 266 C88 266.66 88 267.32 88 268 C87.34 268 86.68 268 86 268 C86 268.66 86 269.32 86 270 C84.05570359 271.67083277 82.11371245 273.22019616 80.0625 274.75 C79.46131348 275.20101074 78.86012695 275.65202148 78.24072266 276.11669922 C77.03610536 277.01540245 75.82878541 277.91049563 74.61865234 278.80175781 C73.33268717 279.75372118 72.06360938 280.72848862 70.80078125 281.7109375 C58.43992483 290.78726615 43.06116634 295.35578279 28 297 C27.15856445 297.0942627 26.31712891 297.18852539 25.45019531 297.28564453 C18.85757188 297.95943736 12.37138682 298.0780615 5.75 298 C3.63020551 298.00181376 1.51041193 298.00577332 -0.609375 298.01171875 C-4.68694174 298.01850236 -8.75255528 297.95202335 -12.828125 297.83203125 C-27.42032965 297.63644882 -37.90882887 301.69638113 -50.75048828 308.3515625 C-54.21307155 310.10808859 -57.71669065 311.75869516 -61.24609375 313.375 C-61.85668137 313.65468628 -62.46726898 313.93437256 -63.09635925 314.22253418 C-64.32765259 314.78572929 -65.55913318 315.34851519 -66.790802 315.91088867 C-74.69862542 319.5285702 -82.54597238 323.2163695 -90.25 327.25 C-94.96136404 329.66531954 -98.70256841 330.89405137 -104 331 C-103.44333845 326.74749642 -102.44615651 323.37184744 -100.56640625 319.5234375 C-99.8403418 318.02296875 -99.8403418 318.02296875 -99.09960938 316.4921875 C-98.59236328 315.46351563 -98.08511719 314.43484375 -97.5625 313.375 C-97.05912109 312.33859375 -96.55574219 311.3021875 -96.03710938 310.234375 C-94.04773007 306.14465498 -92.03862593 302.06539594 -90 298 C-90.92296875 298.03480469 -91.8459375 298.06960938 -92.796875 298.10546875 C-110.97434097 298.48266913 -128.50430091 295.83924048 -145 288 C-145.60972656 287.73832031 -146.21945313 287.47664063 -146.84765625 287.20703125 C-153.07368903 284.39143681 -158.43371297 280.25483131 -163.92578125 276.2421875 C-165.92109644 274.78690044 -167.94513171 273.3699122 -170 272 C-170 271.34 -170 270.68 -170 270 C-170.66 270 -171.32 270 -172 270 C-172 269.34 -172 268.68 -172 268 C-172.66 268 -173.32 268 -174 268 C-174 267.34 -174 266.68 -174 266 C-174.66 266 -175.32 266 -176 266 C-176 265.34 -176 264.68 -176 264 C-176.66 264 -177.32 264 -178 264 C-179.60634015 262.26608049 -181.1375287 260.461909 -182.625 258.625 C-183.85089844 257.12839844 -183.85089844 257.12839844 -185.1015625 255.6015625 C-187 253 -187 253 -187 251 C-187.66 251 -188.32 251 -189 251 C-206 221.57692308 -206 221.57692308 -206 214 C-207.00160156 214.02320313 -208.00320312 214.04640625 -209.03515625 214.0703125 C-210.37759664 214.08908789 -211.72004518 214.10728618 -213.0625 214.125 C-214.37347656 214.14820313 -215.68445313 214.17140625 -217.03515625 214.1953125 C-221.11824299 213.99417522 -224.14999053 213.27165462 -228 212 C-228 211.34 -228 210.68 -228 210 C-228.59683594 209.89945313 -229.19367188 209.79890625 -229.80859375 209.6953125 C-232.40437732 208.8716949 -233.32329664 207.94349253 -235.0625 205.875 C-235.79146484 205.03582031 -235.79146484 205.03582031 -236.53515625 204.1796875 C-240.19122235 198.73946114 -241.37595392 194.16930147 -241.40405273 187.64697266 C-241.41091599 186.94839645 -241.41777924 186.24982025 -241.42485046 185.53007507 C-241.44301807 183.24119216 -241.43929511 180.95300142 -241.43359375 178.6640625 C-241.43816093 177.05894755 -241.44346809 175.45383456 -241.44947815 173.84872437 C-241.45838995 170.49151648 -241.45600893 167.13454671 -241.44604492 163.77734375 C-241.4345673 159.49476817 -241.45475746 155.21301866 -241.48396206 150.93055153 C-241.50239257 147.61718605 -241.50201789 144.30401595 -241.49632454 140.99061203 C-241.49617211 139.4127016 -241.50215121 137.83477725 -241.51461601 136.25691605 C-241.5847914 125.91699556 -240.4755628 118.5819645 -234.9375 109.6875 C-231.35607949 106.41088124 -228.01542802 105.27539592 -223.42578125 103.859375 C-220.85894609 103.14587396 -220.85894609 103.14587396 -219 101 C-218.6733492 98.77290085 -218.6733492 98.77290085 -218.69360352 96.1706543 C-218.67761612 95.16588547 -218.66162872 94.16111664 -218.64515686 93.12590027 C-218.63979416 92.03634537 -218.63443146 90.94679047 -218.62890625 89.82421875 C-218.61987778 88.70690872 -218.6108493 87.58959869 -218.60154724 86.43843079 C-218.58701736 84.07039073 -218.57815124 81.70231028 -218.57446289 79.33422852 C-218.56258156 75.71236278 -218.51343243 72.09220822 -218.46289062 68.47070312 C-218.45342519 66.17188333 -218.44619073 63.87305305 -218.44140625 61.57421875 C-218.42187393 60.49073654 -218.40234161 59.40725433 -218.38221741 58.29093933 C-218.36524859 52.1455594 -218.36524859 52.1455594 -221.37084961 46.93286133 C-222.23846924 46.29501709 -223.10608887 45.65717285 -224 45 C-228.35890632 40.84866065 -231.61117096 37.66453385 -232.50390625 31.546875 C-232.61646925 24.25279291 -232.45418492 18.67785979 -227.72265625 12.73828125 C-222.88617842 7.85793514 -218.2088351 5.85527256 -211.3125 5.6875 C-205.4237872 5.73037898 -201.90454677 6.76114836 -197 10 C-196.505 11.485 -196.505 11.485 -196 13 C-195.34 13 -194.68 13 -194 13 C-189.61398432 20.12727548 -188.5595639 26.90584727 -190.5078125 35.1484375 C-192.64147427 40.76462768 -197.06581572 44.76725858 -202 48 C-202.66 48 -203.32 48 -204 48 C-203.67 65.49 -203.34 82.98 -203 101 C-200.36 95.72 -197.72 90.44 -195 85 C-178.50838791 59.42605082 -157.08021501 38.93265877 -126.5 32.1875 C-124.33877225 31.76297312 -122.17184342 31.36636679 -120 31 C-118.98486328 30.82525146 -117.96972656 30.65050293 -116.92382812 30.47045898 C-112.2515113 29.91025773 -107.6993108 29.90232562 -103 29.9296875 C-101.04035573 29.92109656 -99.080719 29.91061815 -97.12109375 29.8984375 C-94.07119822 29.88184341 -91.02299736 29.87480709 -87.97314453 29.90039062 C-74.4712963 29.99706781 -64.71958291 28.78083534 -53 22 C-51.22325234 21.13102976 -49.43875515 20.27759978 -47.64453125 19.4453125 C-46.03385165 18.67188024 -44.42317457 17.89844274 -42.8125 17.125 C-32.61623448 12.24913942 -22.33710141 7.56906363 -12 3 C-11.33379639 2.69908447 -10.66759277 2.39816895 -9.98120117 2.08813477 C-6.46437684 0.52484636 -3.87722889 -0.35247535 0 0 Z M-214 21 C-216.2371888 23.68819268 -216.2371888 23.68819268 -218 27 C-217.20069305 30.90772285 -216.36155289 31.75896474 -213 34 C-210.21241468 33.7909311 -208.49296292 33.33997443 -206.1875 31.75 C-204.56106386 29.35314675 -204.64473795 27.84209638 -205 25 C-205.66 24.01 -206.32 23.02 -207 22 C-210.56769552 21.26393501 -210.56769552 21.26393501 -214 21 Z M120 23 C118.8283633 26.36760187 118.8283633 26.36760187 119 30 C120.39685006 32.6469872 120.39685006 32.6469872 123 34 C126.55053329 34 128.28808667 33.64301849 130.9375 31.25 C132.2027898 29.02756768 132.2027898 29.02756768 131.875 26.4375 C130.93290316 23.81308737 130.2743343 22.60045747 128 21 C123.55105241 20.88053571 123.55105241 20.88053571 120 23 Z M-158.76171875 88.91796875 C-164.77329188 95.72030188 -168.72550267 102.55632764 -172 111 C-172.38929688 111.95390625 -172.77859375 112.9078125 -173.1796875 113.890625 C-178.60549229 128.38584072 -178.32738543 144.25206508 -178.26074219 159.51977539 C-178.25002499 162.4307137 -178.2607036 165.34103339 -178.2734375 168.25195312 C-178.28076104 177.18596791 -178.08402618 186.03443736 -177.12109375 194.921875 C-177.04518005 195.62803452 -176.96926636 196.33419403 -176.89105225 197.06175232 C-174.6334152 215.49750559 -165.03785114 233.81576487 -150.79296875 245.8671875 C-149.0716744 247.17804386 -149.0716744 247.17804386 -147 247 C-147 247.66 -147 248.32 -147 249 C-130.97644465 261.74373386 -111.70518221 265.32133668 -91.59472656 265.2746582 C-90.43019958 265.27976913 -89.26567261 265.28488007 -88.06585693 265.29014587 C-84.25739241 265.30392283 -80.44911132 265.3030939 -76.640625 265.30078125 C-74.64249123 265.30368874 -72.6443574 265.30660233 -70.64622474 265.310188 C-64.37383203 265.32122598 -58.10149924 265.32175354 -51.82910156 265.31567383 C-45.40742196 265.30964404 -38.98596201 265.32193283 -32.56431985 265.3432439 C-27.00713615 265.36099246 -21.4500215 265.36684046 -15.89281058 265.36360615 C-12.59312605 265.36181348 -9.29363037 265.36558539 -5.99396515 265.37832069 C17.60843023 265.45823987 41.90690438 264.84097494 61 249 C61 248.34 61 247.68 61 247 C61.556875 246.773125 62.11375 246.54625 62.6875 246.3125 C65.64249199 244.63534239 67.70770125 242.45646869 70 240 C70.59941406 239.41734375 71.19882812 238.8346875 71.81640625 238.234375 C87.57342264 222.07649518 91.14722082 199.75223389 91.16796875 178.07421875 C91.17129715 176.8502388 91.17462555 175.62625885 91.17805481 174.3651886 C91.18309775 171.78586195 91.18546395 169.20652884 91.18530273 166.62719727 C91.18748726 162.71033835 91.2056662 158.79376226 91.22460938 154.87695312 C91.22754435 152.35937595 91.22952845 149.84179746 91.23046875 147.32421875 C91.24124702 145.58926399 91.24124702 145.58926399 91.25224304 143.81925964 C91.19593055 123.48012911 85.25384637 104.3722364 72.4453125 88.40625 C71.09718275 86.76754835 71.09718275 86.76754835 69 87 C69 86.34 69 85.68 69 85 C68.34 85 67.68 85 67 85 C67 84.34 67 83.68 67 83 C66.34 83 65.68 83 65 83 C65 82.34 65 81.68 65 81 C62.36315253 78.60179695 62.36315253 78.60179695 59 78 C59 77.34 59 76.68 59 76 C41.04541863 64.69422454 24.67680892 61.84581064 3.53125 61.85473633 C2.36029785 61.85137772 1.1893457 61.8480191 -0.01708984 61.84455872 C-3.84473768 61.83514647 -7.67234135 61.83311085 -11.5 61.83203125 C-13.50548564 61.82962796 -15.51097128 61.82722249 -17.5164566 61.82457083 C-23.80784929 61.81647404 -30.0992277 61.81398236 -36.390625 61.81469727 C-42.84414346 61.81529828 -49.29757841 61.80473057 -55.75107574 61.7889536 C-61.32856889 61.77581268 -66.90603492 61.77051603 -72.4835434 61.77115268 C-75.79871483 61.77140555 -79.11379573 61.76772583 -82.42895508 61.75797462 C-86.12978949 61.74810363 -89.83041168 61.75108028 -93.53125 61.75708008 C-94.60487793 61.75146057 -95.67850586 61.74584106 -96.78466797 61.74005127 C-121.8993183 61.84276388 -141.73061824 70.71776874 -158.76171875 88.91796875 Z " fill="#0A3B64" transform="translate(293,85)"/>
<path d="M0 0 C0 0.66 0 1.32 0 2 C0.66 2 1.32 2 2 2 C3.11445895 3.37616567 4.16729865 4.80257474 5.1875 6.25 C9.10987716 11.4255848 12.47593322 14.08067823 18.875 15.75 C28.57689681 16.52615174 35.57263491 16.13869792 43.25 9.625 C45.52589056 7.53507715 47.27688515 5.62539067 49.125 3.125 C51 1 51 1 53.9375 -0.125 C57 0 57 0 59.875 2.0625 C62 5 62 5 62.625 7.75 C61.73193648 12.39393028 59.47905592 16.01580298 57 20 C56.34 20 55.68 20 55 20 C55 20.66 55 21.32 55 22 C44.40820412 30.21606597 33.23615924 33.81178958 19.84765625 32.75 C13.51037921 31.85494952 8.53743258 30.19467264 3 27 C3 26.34 3 25.68 3 25 C2.29875 24.814375 1.5975 24.62875 0.875 24.4375 C-4.19691295 21.90154352 -7.8175553 17.21135161 -10 12 C-10.19569268 8.28183899 -10.17990239 5.53970718 -9 2 C-5.99208089 -0.04108797 -3.57804656 -0.19878036 0 0 Z " fill="#0E3B62" transform="translate(224,281)"/>
<path d="M0 0 C4.42446774 3.92147562 9.17586721 8.5985314 10.19140625 14.64453125 C10.25947209 18.12950238 10.14868146 20.14362621 8.35546875 23.20703125 C5.49020874 24.85455576 3.35078183 25.34422696 0.0625 24.7890625 C-3.6198744 22.87944179 -5.47755421 19.52429718 -7.79003906 16.17089844 C-10.97276122 11.63545118 -13.68512555 8.89036966 -19.14453125 7.64453125 C-25.32450285 6.84680552 -29.71694544 7.38797976 -35.14453125 10.64453125 C-35.80453125 10.64453125 -36.46453125 10.64453125 -37.14453125 10.64453125 C-37.52931641 11.48951172 -37.52931641 11.48951172 -37.921875 12.3515625 C-39.28937092 14.91616348 -40.90369233 17.0543276 -42.70703125 19.33203125 C-43.32707031 20.11964844 -43.94710938 20.90726563 -44.5859375 21.71875 C-46.14453125 23.64453125 -46.14453125 23.64453125 -47.14453125 24.64453125 C-50.08015637 24.54983367 -52.37158736 24.45748267 -55.14453125 23.64453125 C-57.31483727 21.20293697 -57.98074786 19.51024343 -58.58203125 16.33203125 C-57.93626851 12.365203 -56.08317103 9.13235192 -54.14453125 5.64453125 C-53.48453125 5.64453125 -52.82453125 5.64453125 -52.14453125 5.64453125 C-51.89058594 5.04769531 -51.63664062 4.45085937 -51.375 3.8359375 C-47.75814918 -2.60550158 -39.61495709 -6.0846878 -32.8359375 -8.01171875 C-20.3109662 -10.98175875 -9.98625521 -7.87339482 0 0 Z " fill="#113E65" transform="translate(330.14453125,221.35546875)"/>
<path d="M0 0 C0.49628906 0.39058594 0.99257812 0.78117188 1.50390625 1.18359375 C1.50390625 1.84359375 1.50390625 2.50359375 1.50390625 3.18359375 C2.16390625 3.18359375 2.82390625 3.18359375 3.50390625 3.18359375 C10.74515386 15.10148045 10.74515386 15.10148045 9.50390625 21.18359375 C7.87890625 23.62109375 7.87890625 23.62109375 5.50390625 25.18359375 C1.39612876 25.68658691 -0.00485358 25.5110872 -3.49609375 23.18359375 C-3.49609375 22.52359375 -3.49609375 21.86359375 -3.49609375 21.18359375 C-4.15609375 21.18359375 -4.81609375 21.18359375 -5.49609375 21.18359375 C-6.64453125 19.5390625 -6.64453125 19.5390625 -7.87109375 17.37109375 C-10.85373064 12.42619575 -13.87513113 9.8074274 -19.49609375 8.18359375 C-24.59915937 7.80558889 -29.47854786 8.15435357 -34.49609375 9.18359375 C-34.49609375 9.84359375 -34.49609375 10.50359375 -34.49609375 11.18359375 C-35.39328125 11.52390625 -35.39328125 11.52390625 -36.30859375 11.87109375 C-39.11539767 13.5551761 -39.96174268 15.31502436 -41.49609375 18.18359375 C-43.3994396 21.74202295 -44.58207373 23.86366107 -48.49609375 25.18359375 C-51.5314574 24.99775516 -53.71871622 24.62410768 -56.37109375 23.12109375 C-58.31105225 19.78005411 -58.32271575 16.83750259 -57.49609375 13.18359375 C-52.93402969 3.42354154 -46.7779256 -2.35527997 -36.80859375 -6.12890625 C-23.24010363 -10.78264309 -11.87009832 -7.23017374 0 0 Z " fill="#103D64" transform="translate(217.49609375,220.81640625)"/>
<path d="M0 0 C0 0.66 0 1.32 0 2 C0.66 2 1.32 2 2 2 C3.5859375 3.86328125 3.5859375 3.86328125 5.375 6.3125 C7.67025342 9.45204267 9.77637183 11.8059447 13 14 C12.835 14.78375 12.67 15.5675 12.5 16.375 C11.9376293 18.88208039 11.9376293 18.88208039 12 21 C12.99 21.33 13.98 21.66 15 22 C15 22.66 15 23.32 15 24 C14.34 24 13.68 24 13 24 C13.66 24.78375 14.32 25.5675 15 26.375 C17 29 17 29 17 31 C18.24136719 30.84402344 19.48273438 30.68804687 20.76171875 30.52734375 C22.40359659 30.33031841 24.0455265 30.13372659 25.6875 29.9375 C26.50412109 29.83373047 27.32074219 29.72996094 28.16210938 29.62304688 C32.3420806 29.13228102 35.88754211 28.80227805 40 30 C40 30.33 40 30.66 40 31 C26.96782426 34.16010674 14.93718554 33.14140281 3 27 C3 26.34 3 25.68 3 25 C2.29875 24.814375 1.5975 24.62875 0.875 24.4375 C-4.19691295 21.90154352 -7.8175553 17.21135161 -10 12 C-10.19569268 8.28183899 -10.17990239 5.53970718 -9 2 C-5.99208089 -0.04108797 -3.57804656 -0.19878036 0 0 Z " fill="#113E65" transform="translate(224,281)"/>
<path d="M0 0 C0.81202881 0.14210907 1.62405762 0.28421814 2.46069336 0.43063354 C16.08916941 2.48750055 29.71684017 2.26033471 43.46922684 2.20278788 C47.0139004 2.19012934 50.55857881 2.18909828 54.10327148 2.18673706 C60.78930527 2.18056608 67.47527222 2.16421581 74.16127682 2.14403808 C81.78422613 2.12154111 89.40717894 2.11065126 97.03015327 2.10064721 C112.68680731 2.07984471 128.34339497 2.04475577 144 2 C144 2.66 144 3.32 144 4 C125.66771843 4.07003031 107.33547149 4.1229588 89.00308514 4.15543652 C80.49135051 4.1709162 71.97969892 4.19202669 63.46801758 4.22631836 C56.05064855 4.25618709 48.63333965 4.27556699 41.21591216 4.28226548 C37.28713752 4.28618206 33.35853489 4.2954092 29.42981529 4.31719017 C25.73378815 4.33751554 22.0380043 4.34384189 18.34192657 4.33932304 C16.33502098 4.34054507 14.32814203 4.35670783 12.32130432 4.3732605 C11.13078461 4.36913651 9.94026489 4.36501251 8.71366882 4.36076355 C7.15814316 4.36491162 7.15814316 4.36491162 5.57119274 4.36914349 C3 4 3 4 1.1428957 2.53995228 C0 1 0 1 0 0 Z " fill="#455F78" transform="translate(173,347)"/>
<path d="M0 0 C0.66 0.33 1.32 0.66 2 1 C2.02528819 8.79621694 2.04284068 16.59242336 2.05493164 24.38867188 C2.05997042 27.04264725 2.06680151 29.69661984 2.07543945 32.35058594 C2.08752489 36.15821011 2.09323275 39.96579769 2.09765625 43.7734375 C2.10281754 44.96617279 2.10797882 46.15890808 2.11329651 47.38778687 C2.11337204 48.48877716 2.11344757 49.58976746 2.11352539 50.72412109 C2.115746 51.69674896 2.11796661 52.66937683 2.12025452 53.67147827 C2 56 2 56 1 58 C0.01 58 -0.98 58 -2 58 C-1.75443359 56.86147583 -1.75443359 56.86147583 -1.50390625 55.69995117 C-0.8251412 50.71609246 -0.89708606 45.82400386 -0.9375 40.80078125 C-0.94128662 39.72877975 -0.94507324 38.65677826 -0.94897461 37.55229187 C-0.96115949 34.13898647 -0.97979604 30.72576679 -1 27.3125 C-1.02653629 22.80859611 -1.04654802 18.30473364 -1.0625 13.80078125 C-1.07079834 12.76327225 -1.07909668 11.72576324 -1.08764648 10.65681458 C-1.09094971 9.69539047 -1.09425293 8.73396637 -1.09765625 7.7434082 C-1.10289307 6.89768753 -1.10812988 6.05196686 -1.11352539 5.18061829 C-1 3 -1 3 0 0 Z " fill="#0A2946" transform="translate(422,132)"/>
<path d="M0 0 C-1.44323469 4.73789165 -3.37226733 8.98858151 -5.625 13.375 C-5.94984375 14.01566406 -6.2746875 14.65632813 -6.609375 15.31640625 C-7.40257407 16.87947501 -8.20077031 18.44000622 -9 20 C-9.99 20 -10.98 20 -12 20 C-11 17 -11 17 -9.875 15.0625 C-8.64105623 12.72964691 -8.64105623 12.72964691 -10 9 C-12.97 9 -15.94 9 -19 9 C-18 6 -18 6 -15.234375 4.39453125 C-14.08453125 3.87246094 -12.9346875 3.35039063 -11.75 2.8125 C-10.61046875 2.28269531 -9.4709375 1.75289063 -8.296875 1.20703125 C-5.22125107 0.08100306 -3.22499098 -0.27279059 0 0 Z " fill="#224664" transform="translate(293,85)"/>
<path d="M0 0 C0.66 0 1.32 0 2 0 C2.19364012 7.18962204 2.371038 14.37951288 2.53710938 21.56982422 C2.5955343 24.0162057 2.6576872 26.4625011 2.72363281 28.90869141 C2.81773708 32.42334317 2.89846239 35.93808572 2.9765625 39.453125 C3.00875885 40.5480426 3.0409552 41.64296021 3.0741272 42.77105713 C3.09429901 43.79181335 3.11447083 44.81256958 3.13525391 45.86425781 C3.15746002 46.76138489 3.17966614 47.65851196 3.20254517 48.58282471 C2.98519775 51.17665012 2.31390063 52.77513204 1 55 C0.34 54.67 -0.32 54.34 -1 54 C-1.02537091 47.11320788 -1.04287571 40.22642783 -1.05493164 33.33959961 C-1.05995801 30.99714711 -1.06678008 28.65469775 -1.07543945 26.31225586 C-1.08757918 22.94383978 -1.09324531 19.57546522 -1.09765625 16.20703125 C-1.10281754 15.16102249 -1.10797882 14.11501373 -1.11329651 13.03730774 C-1.11337204 12.05666855 -1.11344757 11.07602936 -1.11352539 10.06567383 C-1.115746 9.20629715 -1.11796661 8.34692047 -1.12025452 7.46150208 C-0.99457736 4.88900339 -0.56648426 2.50932729 0 0 Z " fill="#07233E" transform="translate(411,135)"/>
<path d="M0 0 C0.70602859 0.02502594 1.41205719 0.05005188 2.13948059 0.07583618 C4.39166074 0.15792509 6.64294916 0.25455502 8.89453125 0.3515625 C10.42248977 0.40981359 11.95048474 0.46711664 13.47851562 0.5234375 C17.22186586 0.6634868 20.96448213 0.81657856 24.70703125 0.9765625 C24.04703125 2.2965625 23.38703125 3.6165625 22.70703125 4.9765625 C11.44999475 5.53119751 0.77650533 3.83067182 -10.29296875 1.9765625 C-6.65924342 -0.44592105 -4.17216033 -0.19624957 0 0 Z " fill="#244666" transform="translate(177.29296875,378.0234375)"/>
<path d="M0 0 C0.66 0 1.32 0 2 0 C2 0.66 2 1.32 2 2 C2.928125 2.37125 2.928125 2.37125 3.875 2.75 C6.37480203 4.22047178 6.83316022 5.41403076 8 8 C8.62648438 7.96519531 9.25296875 7.93039062 9.8984375 7.89453125 C10.71570313 7.86746094 11.53296875 7.84039062 12.375 7.8125 C13.18710938 7.77769531 13.99921875 7.74289062 14.8359375 7.70703125 C15.55007812 7.80371094 16.26421875 7.90039062 17 8 C17.99 9.485 17.99 9.485 19 11 C22.10811287 11.80541207 22.10811287 11.80541207 25.625 12.1875 C26.81351563 12.34605469 28.00203125 12.50460937 29.2265625 12.66796875 C30.14179687 12.77753906 31.05703125 12.88710938 32 13 C32 13.33 32 13.66 32 14 C29.24993392 14.0270203 26.50013454 14.04684883 23.75 14.0625 C22.97269531 14.07087891 22.19539063 14.07925781 21.39453125 14.08789062 C20.26337891 14.09272461 20.26337891 14.09272461 19.109375 14.09765625 C18.07248535 14.10551147 18.07248535 14.10551147 17.01464844 14.11352539 C14.90026102 13.99437971 13.03358485 13.57618237 11 13 C11 12.34 11 11.68 11 11 C10.40574219 10.90460938 9.81148437 10.80921875 9.19921875 10.7109375 C6.52581428 9.84671083 5.5810523 8.77999689 3.8125 6.625 C3.30332031 6.01914062 2.79414062 5.41328125 2.26953125 4.7890625 C1 3 1 3 0 0 Z " fill="#0B3051" transform="translate(54,284)"/>
<path d="M0 0 C1.33333333 0 2.66666667 0 4 0 C3.25 7.75 3.25 7.75 1 10 C-0.98985949 10.38932033 -2.99199544 10.71887936 -5 11 C-6.33737094 11.31674575 -7.67288808 11.64270064 -9 12 C-9 12.66 -9 13.32 -9 14 C-9.99 13.67 -10.98 13.34 -12 13 C-10.68 12.34 -9.36 11.68 -8 11 C-8.33 9.02 -8.66 7.04 -9 5 C-7.68 5.33 -6.36 5.66 -5 6 C-4.54625 5.38125 -4.0925 4.7625 -3.625 4.125 C-2 2 -2 2 0 0 Z " fill="#07355D" transform="translate(98,105)"/>
<path d="M0 0 C0.33 0 0.66 0 1 0 C1.33 4.29 1.66 8.58 2 13 C2.33 13 2.66 13 3 13 C3.33675279 15.89547264 3.66951734 18.79131072 4 21.6875 C4.09539062 22.50412109 4.19078125 23.32074219 4.2890625 24.16210938 C4.73870522 28.12860052 5.13034543 32.00002463 5 36 C3.515 36.495 3.515 36.495 2 37 C0.6255526 31.69856003 -0.12278279 26.88942996 -0.09765625 21.38671875 C-0.09443359 20.13955078 -0.09121094 18.89238281 -0.08789062 17.60742188 C-0.07532227 15.66706055 -0.07532227 15.66706055 -0.0625 13.6875 C-0.05798828 12.37458984 -0.05347656 11.06167969 -0.04882812 9.70898438 C-0.03705949 6.4726099 -0.0206176 3.23632822 0 0 Z " fill="#1B3E5D" transform="translate(113,257)"/>
<path d="M0 0 C0.66 0.33 1.32 0.66 2 1 C2 3.97 2 6.94 2 10 C1.67 8.68 1.34 7.36 1 6 C-1.51083114 7.25541557 -1.87125446 8.50063488 -3 11 C-3.33 10.34 -3.66 9.68 -4 9 C-4.78375 9.495 -5.5675 9.99 -6.375 10.5 C-9 12 -9 12 -11 12 C-10.67 8.7 -10.34 5.4 -10 2 C-9.01 2 -8.02 2 -7 2 C-7 2.99 -7 3.98 -7 5 C-6.01 4.67 -5.02 4.34 -4 4 C-4 3.34 -4 2.68 -4 2 C-2.125 0.9375 -2.125 0.9375 0 0 Z " fill="#08355E" transform="translate(436,104)"/>
<path d="M0 0 C-3.85473795 2.07989838 -7.49937404 2.66426468 -11.8125 3.125 C-12.58062012 3.20991699 -13.34874023 3.29483398 -14.14013672 3.38232422 C-24.39921314 4.39217983 -34.70503061 4.17897112 -45 4 C-44.67 3.34 -44.34 2.68 -44 2 C-41.03173828 1.58935547 -41.03173828 1.58935547 -37.0703125 1.3671875 C-36.01286331 1.30484421 -36.01286331 1.30484421 -34.93405151 1.24124146 C-33.43285045 1.15452911 -31.93137479 1.07246807 -30.4296875 0.99462891 C-28.16860581 0.87726344 -25.90862436 0.74667095 -23.6484375 0.61328125 C-15.76309531 0.16274632 -7.90052275 -0.13470445 0 0 Z " fill="#586A7D" transform="translate(332,379)"/>
<path d="M0 0 C1.65 0 3.3 0 5 0 C2.31158141 2.25245881 0.35358125 3.88213958 -3 5 C-3 23.48 -3 41.96 -3 61 C-3.33 61 -3.66 61 -4 61 C-4 41.86 -4 22.72 -4 3 C-2.68 2.67 -1.36 2.34 0 2 C0 1.34 0 0.68 0 0 Z " fill="#6A7780" transform="translate(92,128)"/>
<path d="M0 0 C2.97 0 5.94 0 9 0 C9.33 0.99 9.66 1.98 10 3 C11.24136719 2.84402344 12.48273438 2.68804687 13.76171875 2.52734375 C15.40359659 2.33031841 17.0455265 2.13372659 18.6875 1.9375 C19.91243164 1.7818457 19.91243164 1.7818457 21.16210938 1.62304688 C25.3420806 1.13228102 28.88754211 0.80227805 33 2 C33 2.33 33 2.66 33 3 C21.47759348 5.7940104 11.06060201 5.31176011 0 1 C0 0.67 0 0.34 0 0 Z " fill="#4B6078" transform="translate(231,309)"/>
<path d="M0 0 C1.74216797 0.02707031 1.74216797 0.02707031 3.51953125 0.0546875 C4.39996094 0.07789062 5.28039062 0.10109375 6.1875 0.125 C6.1875 1.115 6.1875 2.105 6.1875 3.125 C5.39085937 3.16238281 4.59421875 3.19976562 3.7734375 3.23828125 C-2.19744654 3.60873756 -6.5238027 4.14163229 -11.8125 7.125 C-12.8025 6.795 -13.7925 6.465 -14.8125 6.125 C-11.10296767 0.2678437 -6.6142991 -0.1336222 0 0 Z " fill="#28455F" transform="translate(418.8125,90.875)"/>
<path d="M0 0 C-2.39503687 1.12672175 -4.7909871 2.25142558 -7.1875 3.375 C-7.86103516 3.69210937 -8.53457031 4.00921875 -9.22851562 4.3359375 C-19.39703086 9.09777878 -19.39703086 9.09777878 -22.3125 8.625 C-22.869375 8.41875 -23.42625 8.2125 -24 8 C-22.35 7.67 -20.7 7.34 -19 7 C-18.67 6.01 -18.34 5.02 -18 4 C-17.34 3.34 -16.68 2.68 -16 2 C-14.68 2 -13.36 2 -12 2 C-11.67 1.34 -11.34 0.68 -11 0 C-6.97268577 -0.83585767 -3.93421227 -1.15507777 0 0 Z " fill="#314D67" transform="translate(358,370)"/>
<path d="M0 0 C0 0.66 0 1.32 0 2 C0.66 2 1.32 2 2 2 C2.625 3.875 2.625 3.875 3 6 C2.34 6.66 1.68 7.32 1 8 C0.5875 7.484375 0.175 6.96875 -0.25 6.4375 C-1.88043385 4.80010651 -1.88043385 4.80010651 -4 4.9375 C-7.01056193 6.53686103 -7.70173106 8.94906799 -9 12 C-9.33 12 -9.66 12 -10 12 C-10.125 5.375 -10.125 5.375 -9 2 C-5.99208089 -0.04108797 -3.57804656 -0.19878036 0 0 Z " fill="#123556" transform="translate(224,281)"/>
<path d="M0 0 C0.66 0.99 1.32 1.98 2 3 C1.67 3.66 1.34 4.32 1 5 C1.66 5 2.32 5 3 5 C2.67 5.66 2.34 6.32 2 7 C1.34 6.67 0.68 6.34 0 6 C-0.02578125 6.59167969 -0.0515625 7.18335938 -0.078125 7.79296875 C-0.45704414 13.0720013 -1.10636661 16.10636661 -5 20 C-5.99 19.67 -6.98 19.34 -8 19 C-7.50628906 17.96359375 -7.01257813 16.9271875 -6.50390625 15.859375 C-5.85658128 14.4896729 -5.20945634 13.11987625 -4.5625 11.75 C-4.23701172 11.06808594 -3.91152344 10.38617188 -3.57617188 9.68359375 C-3.26357422 9.01972656 -2.95097656 8.35585938 -2.62890625 7.671875 C-2.34088135 7.0644043 -2.05285645 6.45693359 -1.75610352 5.83105469 C-0.96329541 3.91111254 -0.45524597 2.0241838 0 0 Z " fill="#2D4B66" transform="translate(380,294)"/>
<path d="M0 0 C0.33 0 0.66 0 1 0 C1 9.57 1 19.14 1 29 C-1.31 29 -3.62 29 -6 29 C-5.360625 28.71125 -4.72125 28.4225 -4.0625 28.125 C-1.84793921 27.17176549 -1.84793921 27.17176549 -1 25 C-0.92710963 23.19796782 -0.91633734 21.39322533 -0.9375 19.58984375 C-0.94523437 18.51798828 -0.95296875 17.44613281 -0.9609375 16.34179688 C-0.97382812 15.21837891 -0.98671875 14.09496094 -1 12.9375 C-1.02538599 10.71749531 -1.04646081 8.49743565 -1.0625 6.27734375 C-1.07410156 5.28984131 -1.08570312 4.30233887 -1.09765625 3.28491211 C-1 1 -1 1 0 0 Z " fill="#647081" transform="translate(75,161)"/>
<path d="M0 0 C0.66 0.99 1.32 1.98 2 3 C1.01 3 0.02 3 -1 3 C-1.268125 3.598125 -1.53625 4.19625 -1.8125 4.8125 C-3.55405061 8.02061955 -5.02649525 9.62746196 -8.48046875 10.94921875 C-9.82044922 11.31466797 -9.82044922 11.31466797 -11.1875 11.6875 C-12.53908203 12.06455078 -12.53908203 12.06455078 -13.91796875 12.44921875 C-14.60503906 12.63097656 -15.29210937 12.81273437 -16 13 C-16.33 12.34 -16.66 11.68 -17 11 C-16.39671875 10.67386719 -15.7934375 10.34773438 -15.171875 10.01171875 C-13.97304688 9.35623047 -13.97304688 9.35623047 -12.75 8.6875 C-11.96109375 8.25824219 -11.1721875 7.82898438 -10.359375 7.38671875 C-7.96827026 6.0465516 -7.96827026 6.0465516 -5.828125 4.33203125 C-4 3 -4 3 -2 3 C-2 2.34 -2 1.68 -2 1 C-1.34 0.67 -0.68 0.34 0 0 Z " fill="#23415B" transform="translate(356,331)"/>
<path d="M0 0 C7.06666667 0.66666667 7.06666667 0.66666667 10 4 C11.2684375 4.495 11.2684375 4.495 12.5625 5 C15 6 15 6 17 9 C10.99522721 8.35083537 5.599219 6.14204997 0 4 C0 2.68 0 1.36 0 0 Z " fill="#3C5975" transform="translate(149,370)"/>
<path d="M0 0 C4.29 1.32 8.58 2.64 13 4 C13 4.99 13 5.98 13 7 C10.36 7.33 7.72 7.66 5 8 C5 7.34 5 6.68 5 6 C4.360625 5.7525 3.72125 5.505 3.0625 5.25 C1 4 1 4 0 0 Z " fill="#294A6C" transform="translate(159,342)"/>
<path d="M0 0 C1.485 0.99 1.485 0.99 3 2 C3 3.65 3 5.3 3 7 C6.3 7.66 9.6 8.32 13 9 C12.67 9.66 12.34 10.32 12 11 C7.98087933 12.08207095 5.84764077 12.41480293 2.0625 10.5625 C-0.89119787 6.89275417 -0.38505199 4.62062383 0 0 Z " fill="#425B75" transform="translate(160,234)"/>
<path d="M0 0 C0.66 0.99 1.32 1.98 2 3 C1.34 3 0.68 3 0 3 C-0.66 5.64 -1.32 8.28 -2 11 C-2.66 11 -3.32 11 -4 11 C-4.33 12.65 -4.66 14.3 -5 16 C-5.99 16.33 -6.98 16.66 -8 17 C-7.49159115 12.17369625 -6.13041456 9.1398908 -3.4375 5.125 C-2.79683594 4.15820312 -2.15617187 3.19140625 -1.49609375 2.1953125 C-1.00238281 1.47085938 -0.50867188 0.74640625 0 0 Z " fill="#21425E" transform="translate(104,161)"/>
<path d="M0 0 C0.33 0 0.66 0 1 0 C1.3690205 12.66970387 1.3690205 12.66970387 -1 18 C-3.09873235 16.26626458 -3.96490929 15.10025916 -4.875 12.5 C-4.91625 11.675 -4.9575 10.85 -5 10 C-4.02351983 8.97702078 -3.01868662 7.98095748 -2 7 C-1.25613932 4.69011685 -0.57809297 2.35684056 0 0 Z " fill="#224462" transform="translate(102,106)"/>
<path d="M0 0 C0.33 2.31 0.66 4.62 1 7 C0.34 6.67 -0.32 6.34 -1 6 C-1 5.34 -1 4.68 -1 4 C-4.33200185 3.58228196 -4.33200185 3.58228196 -8 4 C-10.47208796 6.35832772 -10.47208796 6.35832772 -12 9 C-12 6.69 -12 4.38 -12 2 C-8.09971775 -0.60018816 -4.52565431 -0.15085514 0 0 Z " fill="#3B5B73" transform="translate(87,103)"/>
<path d="M0 0 C3.465 1.98 3.465 1.98 7 4 C7 4.66 7 5.32 7 6 C7.66 6 8.32 6 9 6 C12 10.38461538 12 10.38461538 12 13 C10.35 13 8.7 13 7 13 C6 10 5 7 4 4 C2.68 4 1.36 4 0 4 C0 2.68 0 1.36 0 0 Z " fill="#274662" transform="translate(212,218)"/>
<path d="M0 0 C1.62490954 -0.02698189 3.24994633 -0.04638757 4.875 -0.0625 C5.77992188 -0.07410156 6.68484375 -0.08570312 7.6171875 -0.09765625 C10 0 10 0 12 1 C12 1.66 12 2.32 12 3 C12.66 3 13.32 3 14 3 C13.67 4.32 13.34 5.64 13 7 C12.484375 6.319375 11.96875 5.63875 11.4375 4.9375 C9.04540987 2.60595303 9.04540987 2.60595303 5.375 3.125 C1.95457945 3.70740714 1.95457945 3.70740714 0 6 C0 4.02 0 2.04 0 0 Z " fill="#3A546E" transform="translate(412,104)"/>
<path d="M0 0 C0.99 0 1.98 0 3 0 C2.34 4.62 1.68 9.24 1 14 C0.34 14 -0.32 14 -1 14 C-3 8.375 -3 8.375 -3 5 C-2 3 -2 3 0 0 Z " fill="#07355C" transform="translate(404,305)"/>
<path d="M0 0 C2.48038907 3.7205836 2.46337203 5.59796571 2 10 C0.375 12.4375 0.375 12.4375 -2 14 C-5.25 14.25 -5.25 14.25 -8 14 C-8 13.34 -8 12.68 -8 12 C-7.195625 11.87625 -6.39125 11.7525 -5.5625 11.625 C-4.716875 11.41875 -3.87125 11.2125 -3 11 C-2.67 10.34 -2.34 9.68 -2 9 C-1.34 9 -0.68 9 0 9 C-0.185625 7.88625 -0.37125 6.7725 -0.5625 5.625 C-1 2 -1 2 0 0 Z " fill="#395166" transform="translate(225,232)"/>
<path d="M0 0 C0.33 0.66 0.66 1.32 1 2 C1.66 2.33 2.32 2.66 3 3 C-1.67460782 7.55774263 -4.48277089 8.66290194 -11 9 C-9.948125 8.1646875 -9.948125 8.1646875 -8.875 7.3125 C-5.88655739 4.90875268 -2.94059762 2.46189568 0 0 Z " fill="#3E5B77" transform="translate(270,288)"/>
<path d="M0 0 C0 0.99 0 1.98 0 3 C-5.11310018 3.08970351 -9.96109772 3.0283474 -15 2 C-15.33 1.34 -15.66 0.68 -16 0 C-10.49983036 -1.30267176 -5.52967941 -0.71033431 0 0 Z " fill="#415C74" transform="translate(315,213)"/>
<path d="M0 0 C0 4.13122742 -1.4277594 5.81854452 -4 9 C-7.25 10.375 -7.25 10.375 -10 11 C-7.58662205 6.17324411 -4.13937592 3.30015998 0 0 Z " fill="#3A5572" transform="translate(123,140)"/>
<path d="M0 0 C7.425 0.99 7.425 0.99 15 2 C15 2.33 15 2.66 15 3 C12.9174133 3.19561869 10.83388144 3.38119313 8.75 3.5625 C7.00976562 3.71912109 7.00976562 3.71912109 5.234375 3.87890625 C2.48128523 3.98198087 0.580018 3.86213473 -2 3 C-2.33 3.66 -2.66 4.32 -3 5 C-3 4.34 -3 3.68 -3 3 C-3.66 2.67 -4.32 2.34 -5 2 C-3.35 2 -1.7 2 0 2 C0 1.34 0 0.68 0 0 Z " fill="#46637C" transform="translate(318,115)"/>
<path d="M0 0 C0.99 0.33 1.98 0.66 3 1 C3 1.66 3 2.32 3 3 C2.34 3 1.68 3 1 3 C1 3.66 1 4.32 1 5 C0.34 5 -0.32 5 -1 5 C-1 5.66 -1 6.32 -1 7 C-1.66 7 -2.32 7 -3 7 C-3 7.66 -3 8.32 -3 9 C-5.5 10.625 -5.5 10.625 -8 12 C-7.67 10.35 -7.34 8.7 -7 7 C-5.68 6.67 -4.36 6.34 -3 6 C-2.67 4.68 -2.34 3.36 -2 2 C-1.34 2 -0.68 2 0 2 C0 1.34 0 0.68 0 0 Z " fill="#36516B" transform="translate(382,346)"/>
<path d="M0 0 C1.16144531 0.19464844 2.32289063 0.38929688 3.51953125 0.58984375 C4.39996094 0.74582031 5.28039062 0.90179688 6.1875 1.0625 C6.1875 1.3925 6.1875 1.7225 6.1875 2.0625 C-0.0825 2.0625 -6.3525 2.0625 -12.8125 2.0625 C-12.4825 1.4025 -12.1525 0.7425 -11.8125 0.0625 C-7.67762955 -1.26035618 -4.22440219 -0.7254024 0 0 Z " fill="#445D74" transform="translate(197.8125,212.9375)"/>
<path d="M0 0 C0.99 0.33 1.98 0.66 3 1 C1.45730076 5.72065967 -0.07794619 10.41664092 -2 15 C-2.66 14.67 -3.32 14.34 -4 14 C-2.66666667 9.33333333 -1.33333333 4.66666667 0 0 Z " fill="#3C556F" transform="translate(122,186)"/>
<path d="M0 0 C0 0.66 0 1.32 0 2 C-0.99 2 -1.98 2 -3 2 C-3.12375 2.61875 -3.2475 3.2375 -3.375 3.875 C-4 6 -4 6 -6 8 C-8.625 8.625 -8.625 8.625 -11 9 C-9.55936614 4.67809842 -4.74032109 0 0 0 Z " fill="#48647A" transform="translate(177,217)"/>
<path d="M0 0 C1.32 0 2.64 0 4 0 C4 0.99 4 1.98 4 3 C2.35 3.33 0.7 3.66 -1 4 C-1.12375 4.639375 -1.2475 5.27875 -1.375 5.9375 C-1.58125 6.618125 -1.7875 7.29875 -2 8 C-2.99 8.495 -2.99 8.495 -4 9 C-4.33 8.01 -4.66 7.02 -5 6 C-2.8125 2.8125 -2.8125 2.8125 0 0 Z " fill="#2D4B64" transform="translate(69,94)"/>
<path d="M0 0 C4.29 0.33 8.58 0.66 13 1 C13 1.66 13 2.32 13 3 C8.71 3 4.42 3 0 3 C0 2.01 0 1.02 0 0 Z " fill="#637383" transform="translate(187,380)"/>
<path d="M0 0 C2.125 0.375 2.125 0.375 4 1 C2.89210592 4.32368224 2.51563783 4.61563093 -0.375 6.25 C-1.28378906 6.78367187 -1.28378906 6.78367187 -2.2109375 7.328125 C-4 8 -4 8 -7 7 C-6.34 6.34 -5.68 5.68 -5 5 C-4.01 5 -3.02 5 -2 5 C-2 4.01 -2 3.02 -2 2 C-1.34 1.34 -0.68 0.68 0 0 Z " fill="#35516B" transform="translate(437,289)"/>
<path d="M0 0 C0.66 0.33 1.32 0.66 2 1 C2 1.66 2 2.32 2 3 C2.99 3.33 3.98 3.66 5 4 C0.31506124 6.48887372 -2.9444214 5.85687773 -8 5 C-6.35197949 1.70395897 -3.32254422 1.22409524 0 0 Z " fill="#40647F" transform="translate(261,97)"/>
<path d="M0 0 C0.53625 0.515625 1.0725 1.03125 1.625 1.5625 C4.00496499 3.32605545 4.00496499 3.32605545 7.25 2.6875 C8.1575 2.460625 9.065 2.23375 10 2 C8.58480285 4.0343459 7.45017877 4.90410393 5.01953125 5.421875 C3.01823046 5.66273952 1.0090056 5.83532741 -1 6 C-0.67 4.02 -0.34 2.04 0 0 Z " fill="#354C63" transform="translate(190,410)"/>
<path d="M0 0 C0.66 1.32 1.32 2.64 2 4 C-0.97 6.475 -0.97 6.475 -4 9 C-4.99 8.34 -5.98 7.68 -7 7 C-6.38125 6.7525 -5.7625 6.505 -5.125 6.25 C-2.62985717 4.78226892 -2.09872287 3.62003145 -1 1 C-0.67 0.67 -0.34 0.34 0 0 Z " fill="#3D5A77" transform="translate(364,323)"/>
<path d="M0 0 C2.66666667 2.66666667 5.33333333 5.33333333 8 8 C1.25 7.125 1.25 7.125 -1 6 C-1.042721 4.33388095 -1.04063832 2.66617115 -1 1 C-0.67 0.67 -0.34 0.34 0 0 Z " fill="#264563" transform="translate(227,286)"/>
<path d="M0 0 C-1.75 5.75 -1.75 5.75 -4 8 C-4 6.35 -4 4.7 -4 3 C-5.98 3 -7.96 3 -10 3 C-6.88378718 -0.11621282 -4.21175599 -0.11383124 0 0 Z " fill="#44596D" transform="translate(293,85)"/>
<path d="M0 0 C1.90845703 0.15275391 1.90845703 0.15275391 3.85546875 0.30859375 C4.83128906 0.39238281 5.80710938 0.47617187 6.8125 0.5625 C6.8125 0.8925 6.8125 1.2225 6.8125 1.5625 C4.73064549 1.78512606 2.64689574 1.99007926 0.5625 2.1875 C-0.59765625 2.30351562 -1.7578125 2.41953125 -2.953125 2.5390625 C-6.12622091 2.56205595 -7.57067244 2.25955154 -10.1875 0.5625 C-6.51762779 -0.66079074 -3.84782178 -0.31771006 0 0 Z " fill="#35516B" transform="translate(177.1875,378.4375)"/>
<path d="M0 0 C0.66 0.99 1.32 1.98 2 3 C-0.07143201 7.03384128 -1.96615872 8.92856799 -6 11 C-5.39305845 7.84669446 -4.3583335 5.81111133 -2.4375 3.25 C-1.98246094 2.63640625 -1.52742188 2.0228125 -1.05859375 1.390625 C-0.70925781 0.93171875 -0.35992187 0.4728125 0 0 Z " fill="#264561" transform="translate(371,314)"/>
<path d="M0 0 C2.96052484 3.36423277 3.92289822 6.69159287 5 11 C4.01 11.33 3.02 11.66 2 12 C0.00214565 7.8794254 -0.17835515 4.54805635 0 0 Z " fill="#34506E" transform="translate(403,173)"/>
<path d="M0 0 C0.66 0 1.32 0 2 0 C1.27991594 4.60853797 -0.31295939 8.67237409 -2 13 C-2.33 13 -2.66 13 -3 13 C-3.31563182 7.73946963 -2.66590937 4.55426184 0 0 Z " fill="#2B4763" transform="translate(408,305)"/>
<path d="M0 0 C2.125 0.375 2.125 0.375 4 1 C3 4 3 4 -0.3125 5.75 C-4.97563098 7.33072237 -4.97563098 7.33072237 -8 6 C-6.35 5.67 -4.7 5.34 -3 5 C-2.67 4.01 -2.34 3.02 -2 2 C-1.34 1.34 -0.68 0.68 0 0 Z " fill="#4D6782" transform="translate(342,372)"/>
<path d="M0 0 C0.66 0 1.32 0 2 0 C2.33 1.65 2.66 3.3 3 5 C2.01 5.495 2.01 5.495 1 6 C0.01 7.485 0.01 7.485 -1 9 C-1.66 8.67 -2.32 8.34 -3 8 C-2.45276317 4.62537285 -1.9451 2.91765 0 0 Z " fill="#183857" transform="translate(194,403)"/>
<path d="M0 0 C0 0.66 0 1.32 0 2 C-3.01490557 3.00496852 -5.04181692 3.10335303 -8.1875 3.0625 C-9.53908203 3.04896484 -9.53908203 3.04896484 -10.91796875 3.03515625 C-11.60503906 3.02355469 -12.29210937 3.01195312 -13 3 C-9.39091002 -0.60908998 -4.88215348 -0.11353845 0 0 Z " fill="#2A445A" transform="translate(330,347)"/>
<path d="M0 0 C0.598125 0.763125 1.19625 1.52625 1.8125 2.3125 C3.84004112 4.91335259 3.84004112 4.91335259 5.75 6.6875 C7 8 7 8 7 10 C6.01 10 5.02 10 4 10 C4 9.34 4 8.68 4 8 C3.34 8 2.68 8 2 8 C2 7.34 2 6.68 2 6 C1.34 6 0.68 6 0 6 C0 4.02 0 2.04 0 0 Z " fill="#39566F" transform="translate(128,314)"/>
<path d="M0 0 C1.89551022 -0.05441656 3.7914792 -0.09298035 5.6875 -0.125 C6.74324219 -0.14820312 7.79898438 -0.17140625 8.88671875 -0.1953125 C12.02251859 0.00141271 14.17645373 0.66942346 17 2 C15.02 2.99 15.02 2.99 13 4 C12.67 3.67 12.34 3.34 12 3 C9.98688551 2.60430892 7.96402792 2.25747809 5.9375 1.9375 C4.28041016 1.67259766 4.28041016 1.67259766 2.58984375 1.40234375 C1.73519531 1.26957031 0.88054687 1.13679688 0 1 C0 0.67 0 0.34 0 0 Z " fill="#354C62" transform="translate(76,91)"/>
<path d="M0 0 C2.9375 0.9375 2.9375 0.9375 4.3125 3 C4.51875 3.639375 4.725 4.27875 4.9375 4.9375 C3.9475 5.4325 3.9475 5.4325 2.9375 5.9375 C2.56625 5.4425 2.195 4.9475 1.8125 4.4375 C-0.80944393 2.33994486 -2.80092472 2.72006165 -6.0625 2.9375 C-4.11021899 0.22599859 -3.43024551 -0.07000501 0 0 Z " fill="#5C6E7F" transform="translate(280.0625,281.0625)"/>
<path d="M0 0 C0.66 0.33 1.32 0.66 2 1 C2 1.99 2 2.98 2 4 C1.360625 4.12375 0.72125 4.2475 0.0625 4.375 C-0.9584375 4.684375 -0.9584375 4.684375 -2 5 C-2.33 5.66 -2.66 6.32 -3 7 C-4.65 7 -6.3 7 -8 7 C-5.42215154 4.35247996 -3.08351902 2.05567935 0 0 Z " fill="#425B74" transform="translate(134,131)"/>
<path d="M0 0 C0.99 0.66 1.98 1.32 3 2 C2.19185349 3.33597652 1.37836819 4.668725 0.5625 6 C0.11003906 6.7425 -0.34242188 7.485 -0.80859375 8.25 C-1.20175781 8.8275 -1.59492188 9.405 -2 10 C-2.33 10 -2.66 10 -3 10 C-2.67 7.36 -2.34 4.72 -2 2 C-1.34 2 -0.68 2 0 2 C0 1.34 0 0.68 0 0 Z " fill="#334E66" transform="translate(435,119)"/>
<path d="M0 0 C1.98 0.66 3.96 1.32 6 2 C3.37801226 4.15377564 1.35595828 5.40072174 -2 6 C-1.125 1.125 -1.125 1.125 0 0 Z " fill="#1A3D5D" transform="translate(243,387)"/>
<path d="M0 0 C0.66 0.99 1.32 1.98 2 3 C1.01 3 0.02 3 -1 3 C-1.66 4.32 -2.32 5.64 -3 7 C-4.65 7 -6.3 7 -8 7 C-6.71034824 5.62437146 -5.37310707 4.29233607 -4 3 C-3.34 3 -2.68 3 -2 3 C-2 2.34 -2 1.68 -2 1 C-1.34 0.67 -0.68 0.34 0 0 Z " fill="#425A73" transform="translate(356,331)"/>
<path d="M0 0 C0.66 0 1.32 0 2 0 C2 0.66 2 1.32 2 2 C2.61875 2.28875 3.2375 2.5775 3.875 2.875 C6 4 6 4 8 6 C7.625 8.125 7.625 8.125 7 10 C6.01524786 8.90081184 5.03739527 7.7954398 4.0625 6.6875 C3.51722656 6.07261719 2.97195312 5.45773437 2.41015625 4.82421875 C1 3 1 3 0 0 Z " fill="#536880" transform="translate(54,284)"/>
<path d="M0 0 C5.75 1.875 5.75 1.875 8 3 C8 3.66 8 4.32 8 5 C5.36 4.67 2.72 4.34 0 4 C0 2.68 0 1.36 0 0 Z " fill="#3F546D" transform="translate(275,241)"/>
<path d="M0 0 C3.36720387 1.39332574 4.9859524 2.9789286 7 6 C4.69 5.67 2.38 5.34 0 5 C-0.5625 3.0625 -0.5625 3.0625 -1 1 C-0.67 0.67 -0.34 0.34 0 0 Z " fill="#375571" transform="translate(378,142)"/>
<path d="M0 0 C0.66 0 1.32 0 2 0 C2 0.66 2 1.32 2 2 C2.7425 2.2475 3.485 2.495 4.25 2.75 C7.20124062 4.09147301 8.84814974 5.60905526 11 8 C7.75 7.9375 7.75 7.9375 4 7 C2.1455908 4.7768466 1.21440756 2.67169663 0 0 Z " fill="#596F84" transform="translate(144,332)"/>
<path d="M0 0 C3.3 0 6.6 0 10 0 C10.33 0.99 10.66 1.98 11 3 C7.04 2.67 3.08 2.34 -1 2 C-0.67 1.34 -0.34 0.68 0 0 Z " fill="#15334E" transform="translate(191,226)"/>
<path d="M0 0 C0.66 0 1.32 0 2 0 C2 3.63 2 7.26 2 11 C-1 8 -1 8 -1.07421875 5.95703125 C-0.71614583 3.97135417 -0.35807292 1.98567708 0 0 Z " fill="#284159" transform="translate(411,135)"/>
<path d="M0 0 C0.99 0 1.98 0 3 0 C4.8125 2.25 4.8125 2.25 6 5 C5.1875 7.3125 5.1875 7.3125 4 9 C4 7.68 4 6.36 4 5 C3.01 5.33 2.02 5.66 1 6 C0.67 4.02 0.34 2.04 0 0 Z " fill="#355067" transform="translate(96,98)"/>
<path d="M0 0 C0.33 0.99 0.66 1.98 1 3 C-2 5 -2 5 -6 5 C-5.67 3.68 -5.34 2.36 -5 1 C-3.35 0.67 -1.7 0.34 0 0 Z M-4 5 C-2 6 -2 6 -2 6 Z " fill="#093457" transform="translate(268,96)"/>
<path d="M0 0 C0 0.33 0 0.66 0 1 C-5.60563042 1.82622671 -10.42289352 2.06795656 -16 1 C-16 0.67 -16 0.34 -16 0 C-10.31302429 -0.91397824 -5.68697571 -0.91397824 0 0 Z " fill="#34526D" transform="translate(264,311)"/>
<path d="M0 0 C3.72114571 2.31537955 6.61229661 4.28579473 9 8 C7.35 7.67 5.7 7.34 4 7 C4 6.01 4 5.02 4 4 C2.35 3.67 0.7 3.34 -1 3 C-0.67 2.01 -0.34 1.02 0 0 Z " fill="#456077" transform="translate(325,218)"/>
<path d="M0 0 C2 1.375 2 1.375 4 3 C4 3.66 4 4.32 4 5 C4.66 5 5.32 5 6 5 C6.66 6.32 7.32 7.64 8 9 C4.21304827 8.4590069 2.37254028 6.96567536 0 4 C0 2.68 0 1.36 0 0 Z " fill="#2F4962" transform="translate(387,151)"/>
<path d="M0 0 C0.99 0.99 1.98 1.98 3 3 C2.25 4.9375 2.25 4.9375 1 7 C-0.32 7.33 -1.64 7.66 -3 8 C-2.01 5.36 -1.02 2.72 0 0 Z " fill="#2F4E6A" transform="translate(197,395)"/>
<path d="M0 0 C3.14737182 0.69941596 6.02588876 1.76078698 9 3 C7.25 4.125 7.25 4.125 5 5 C2.8125 4.3125 2.8125 4.3125 1 3 C0.67 2.01 0.34 1.02 0 0 Z " fill="#284764" transform="translate(325,240)"/>
<path d="M0 0 C-0.39803561 2.88575819 -0.79009069 3.82189513 -3.0625 5.75 C-3.701875 6.1625 -4.34125 6.575 -5 7 C-5.66 6.34 -6.32 5.68 -7 5 C-2.25 0 -2.25 0 0 0 Z " fill="#3A5973" transform="translate(285,220)"/>
<path d="M0 0 C0.66 0 1.32 0 2 0 C1.5251065 4.11574371 0.9789756 7.36383344 -1 11 C-1.02688151 9.35425434 -1.04634123 7.70838587 -1.0625 6.0625 C-1.07410156 5.14597656 -1.08570312 4.22945312 -1.09765625 3.28515625 C-1 1 -1 1 0 0 Z " fill="#11304E" transform="translate(116,203)"/>
<path d="M0 0 C-2.98646769 1.99097846 -5.59687262 2.94124926 -9 4 C-9.33 3.01 -9.66 2.02 -10 1 C-6.21812119 -0.83691257 -4.05431692 -1.15837626 0 0 Z " fill="#3D5973" transform="translate(167,151)"/>
<path d="M0 0 C3.77545388 1.09068668 6.47043472 1.9083091 9 5 C3.5 5.36666667 3.5 5.36666667 1.125 3.625 C0 2 0 2 0 0 Z " fill="#496278" transform="translate(360,129)"/>
<path d="M0 0 C0.66 0.33 1.32 0.66 2 1 C2 3.97 2 6.94 2 10 C1.34 8.68 0.68 7.36 0 6 C-0.66 5.67 -1.32 5.34 -2 5 C-1.125 1.125 -1.125 1.125 0 0 Z " fill="#0C3256" transform="translate(436,104)"/>
<path d="M0 0 C-1.44253657 3.36591866 -3.33264727 5.51047079 -6 8 C-6.25 5.6875 -6.25 5.6875 -6 3 C-3.95575462 1.02389614 -2.8823175 0 0 0 Z " fill="#3E546D" transform="translate(394,336)"/>
<path d="M0 0 C0.66 1.32 1.32 2.64 2 4 C3.32 3.67 4.64 3.34 6 3 C6.66 4.32 7.32 5.64 8 7 C3.545 6.01 3.545 6.01 -1 5 C-0.67 3.35 -0.34 1.7 0 0 Z " fill="#1C4467" transform="translate(54,278)"/>
<path d="M0 0 C0 1.98 0 3.96 0 6 C-1.98 5.34 -3.96 4.68 -6 4 C-2.17391304 0 -2.17391304 0 0 0 Z " fill="#2C4C6A" transform="translate(142,127)"/>
<path d="M0 0 C1.32 0.33 2.64 0.66 4 1 C4.33 2.65 4.66 4.3 5 6 C4.01 6.33 3.02 6.66 2 7 C0.5393715 4.35261084 0 3.10551666 0 0 Z " fill="#34536E" transform="translate(90,306)"/>
<path d="M0 0 C2.00720923 0.28674418 4.0085944 0.61866701 6 1 C2.25 4 2.25 4 0 4 C-0.33 4.66 -0.66 5.32 -1 6 C-1.042721 4.33388095 -1.04063832 2.66617115 -1 1 C-0.67 0.67 -0.34 0.34 0 0 Z " fill="#435E7B" transform="translate(293,228)"/>
<path d="M0 0 C1.65 0 3.3 0 5 0 C-0.14285714 4.42857143 -0.14285714 4.42857143 -4 5 C-3.67 4.01 -3.34 3.02 -3 2 C-2.01 2 -1.02 2 0 2 C0 1.34 0 0.68 0 0 Z " fill="#425C73" transform="translate(92,128)"/>
<path d="M0 0 C1.65 0 3.3 0 5 0 C5.33 1.65 5.66 3.3 6 5 C5.01 5.495 5.01 5.495 4 6 C2.68 4.02 1.36 2.04 0 0 Z " fill="#4F677D" transform="translate(399,123)"/>
<path d="M0 0 C0.33 0.66 0.66 1.32 1 2 C1.66 2.33 2.32 2.66 3 3 C1.515 5.475 1.515 5.475 0 8 C-0.99 6.68 -1.98 5.36 -3 4 C-2.01 3.67 -1.02 3.34 0 3 C0 2.01 0 1.02 0 0 Z " fill="#365370" transform="translate(402,317)"/>
<path d="M0 0 C2 1.8125 2 1.8125 4 4 C4 4.99 4 5.98 4 7 C3.34 7 2.68 7 2 7 C1.67 6.34 1.34 5.68 1 5 C0.01 4.67 -0.98 4.34 -2 4 C-2 3.34 -2 2.68 -2 2 C-1.34 2 -0.68 2 0 2 C0 1.34 0 0.68 0 0 Z " fill="#425B73" transform="translate(334,226)"/>
<path d="M0 0 C3.26460973 1.80412643 4.88929795 2.83394693 7 6 C5.35 6 3.7 6 2 6 C1.34 4.02 0.68 2.04 0 0 Z " fill="#395367" transform="translate(435,191)"/>
<path d="M0 0 C0.66 0 1.32 0 2 0 C0.63016497 3.16115776 0.0109362 3.9927092 -3 6 C-3.33 4.35 -3.66 2.7 -4 1 C-2.68 1.33 -1.36 1.66 0 2 C0 1.34 0 0.68 0 0 Z " fill="#314C67" transform="translate(143,162)"/>
<path d="M0 0 C1.98 0.66 3.96 1.32 6 2 C5.67 2.99 5.34 3.98 5 5 C4.01 4.67 3.02 4.34 2 4 C2 3.34 2 2.68 2 2 C0.68 2.33 -0.64 2.66 -2 3 C-1.34 2.01 -0.68 1.02 0 0 Z " fill="#0B2E57" transform="translate(334,148)"/>
<path d="M0 0 C2.31 0 4.62 0 7 0 C6.67 0.99 6.34 1.98 6 3 C4.02 3 2.04 3 0 3 C0 2.01 0 1.02 0 0 Z " fill="#113453" transform="translate(415,119)"/>
<path d="M0 0 C0 0.99 0 1.98 0 3 C-1.98 3.33 -3.96 3.66 -6 4 C-5.67 3.01 -5.34 2.02 -5 1 C-3 0 -3 0 0 0 Z " fill="#294766" transform="translate(233,395)"/>
<path d="M0 0 C1.32 0.33 2.64 0.66 4 1 C1.82575883 3.50037734 0.26954202 4.43628586 -3 5 C-3 4.01 -3 3.02 -3 2 C-2.01 2 -1.02 2 0 2 C0 1.34 0 0.68 0 0 Z " fill="#3B5470" transform="translate(260,381)"/>
<path d="M0 0 C2.99324263 1.0975223 3.84610901 1.67682892 5.25 4.625 C5.4975 5.40875 5.745 6.1925 6 7 C5.01 7 4.02 7 3 7 C0 2.77777778 0 2.77777778 0 0 Z " fill="#4C6074" transform="translate(97,322)"/>
<path d="M0 0 C1.98 0 3.96 0 6 0 C3.94766315 2.2477975 2.99332739 3.0022242 0 4 C-0.99 3.34 -1.98 2.68 -3 2 C-2.01 2 -1.02 2 0 2 C0 1.34 0 0.68 0 0 Z " fill="#334C67" transform="translate(267,306)"/>
<path d="M0 0 C2.64 0.33 5.28 0.66 8 1 C8.33 1.99 8.66 2.98 9 4 C6.03 3.505 6.03 3.505 3 3 C3 2.34 3 1.68 3 1 C2.01 0.67 1.02 0.34 0 0 Z " fill="#4F6379" transform="translate(62,294)"/>
<path d="M0 0 C0.66 0.33 1.32 0.66 2 1 C1.5020163 4.73487777 1.12508244 6.81237635 -1 10 C-1.125 3.375 -1.125 3.375 0 0 Z " fill="#42586D" transform="translate(215,283)"/>
<path d="M0 0 C0.33 0.66 0.66 1.32 1 2 C1.639375 2.12375 2.27875 2.2475 2.9375 2.375 C5 3 5 3 6.25 5.0625 C6.4975 5.701875 6.745 6.34125 7 7 C5.0625 6.6875 5.0625 6.6875 3 6 C2.67 5.01 2.34 4.02 2 3 C1.34 3 0.68 3 0 3 C0 2.01 0 1.02 0 0 Z " fill="#0B3051" transform="translate(54,281)"/>
<path d="M0 0 C0 0.66 0 1.32 0 2 C0.66 2.33 1.32 2.66 2 3 C-1.375 3.125 -1.375 3.125 -5 3 C-5.66 2.34 -6.32 1.68 -7 1 C-4.53721199 -0.231394 -2.7204945 -0.07159196 0 0 Z " fill="#637587" transform="translate(224,281)"/>
<path d="M0 0 C0.66 0.99 1.32 1.98 2 3 C1.125 6.6875 1.125 6.6875 0 10 C-0.66 9.67 -1.32 9.34 -2 9 C-2.20140476 5.37471432 -1.85776765 3.13498292 0 0 Z " fill="#4A5F70" transform="translate(274,231)"/>
<path d="M0 0 C2.31 0 4.62 0 7 0 C7.33 1.65 7.66 3.3 8 5 C5.36 3.68 2.72 2.36 0 1 C0 0.67 0 0.34 0 0 Z " fill="#5F778D" transform="translate(198,228)"/>
<path d="M0 0 C3.465 1.98 3.465 1.98 7 4 C6.67 4.66 6.34 5.32 6 6 C5.34 6 4.68 6 4 6 C4 5.34 4 4.68 4 4 C2.68 4 1.36 4 0 4 C0 2.68 0 1.36 0 0 Z " fill="#51687F" transform="translate(212,218)"/>
<path d="M0 0 C3 2 3 2 3.6875 5.125 C3.8421875 6.548125 3.8421875 6.548125 4 8 C3.01 7.67 2.02 7.34 1 7 C0.67 4.69 0.34 2.38 0 0 Z " fill="#425872" transform="translate(444,202)"/>
<path d="M0 0 C0.66 0.99 1.32 1.98 2 3 C1.34 3 0.68 3 0 3 C-0.33 4.32 -0.66 5.64 -1 7 C-2.32 7.33 -3.64 7.66 -5 8 C-3.35 5.36 -1.7 2.72 0 0 Z " fill="#445A72" transform="translate(104,161)"/>
<path d="M0 0 C0.66 0.33 1.32 0.66 2 1 C1.34 2.32 0.68 3.64 0 5 C-2.475 4.01 -2.475 4.01 -5 3 C-3 1 -3 1 0 0 Z " fill="#40617B" transform="translate(156,120)"/>
<path d="M0 0 C0.99 0.33 1.98 0.66 3 1 C4.1875 3.5625 4.1875 3.5625 5 6 C3.35 5.67 1.7 5.34 0 5 C-0.5625 3.0625 -0.5625 3.0625 -1 1 C-0.67 0.67 -0.34 0.34 0 0 Z " fill="#0D3356" transform="translate(409,114)"/>
<path d="M0 0 C1.98 0.495 1.98 0.495 4 1 C2.515 3.475 2.515 3.475 1 6 C0.34 5.67 -0.32 5.34 -1 5 C-0.67 3.35 -0.34 1.7 0 0 Z " fill="#0B3150" transform="translate(401,99)"/>
<path d="M0 0 C0.99 1.32 1.98 2.64 3 4 C2.3125 6.6875 2.3125 6.6875 1 9 C0.01 9.495 0.01 9.495 -1 10 C-0.67 6.7 -0.34 3.4 0 0 Z " fill="#476480" transform="translate(443,279)"/>
<path d="M0 0 C0.66 0 1.32 0 2 0 C1.6875 1.875 1.6875 1.875 1 4 C0.01 4.66 -0.98 5.32 -2 6 C-2.33 4.68 -2.66 3.36 -3 2 C-2.01 2 -1.02 2 0 2 C0 1.34 0 0.68 0 0 Z " fill="#24415C" transform="translate(285,239)"/>
<path d="M0 0 C1.32 0 2.64 0 4 0 C4.33 1.32 4.66 2.64 5 4 C3.68 4.33 2.36 4.66 1 5 C0.67 3.35 0.34 1.7 0 0 Z " fill="#2F4D69" transform="translate(433,101)"/>
</svg>
